<mxfile host="app.diagrams.net" modified="2022-05-19T03:41:41.573Z" agent="5.0 (Windows NT 10.0; Win64; x64) AppleWebKit/537.36 (KHTML, like Gecko) Chrome/101.0.4951.64 Safari/537.36 Edg/101.0.1210.47" etag="xlSjfnG65Yyk_Vt4GAHt" version="18.0.7" type="github">
  <diagram id="CcpK_IOpLCPhVeao_c5A" name="Page-1">
    <mxGraphModel dx="782" dy="436" grid="1" gridSize="10" guides="1" tooltips="1" connect="1" arrows="1" fold="1" page="1" pageScale="1" pageWidth="850" pageHeight="1100" math="0" shadow="0">
      <root>
        <mxCell id="0" />
        <mxCell id="1" parent="0" />
        <mxCell id="F_9SeeO0Q5-dGzmuoSJV-1" value="注册中心" style="rounded=1;whiteSpace=wrap;html=1;fontSize=20;fillColor=#f8cecc;strokeColor=#b85450;" vertex="1" parent="1">
          <mxGeometry x="300" y="190" width="120" height="60" as="geometry" />
        </mxCell>
        <mxCell id="F_9SeeO0Q5-dGzmuoSJV-2" value="服务消费者" style="rounded=1;whiteSpace=wrap;html=1;fontSize=20;fillColor=#e1d5e7;strokeColor=#9673a6;" vertex="1" parent="1">
          <mxGeometry x="40" y="360" width="120" height="60" as="geometry" />
        </mxCell>
        <mxCell id="F_9SeeO0Q5-dGzmuoSJV-3" value="服务提供者1" style="rounded=1;whiteSpace=wrap;html=1;fontSize=20;fillColor=#e1d5e7;strokeColor=#9673a6;" vertex="1" parent="1">
          <mxGeometry x="560" y="360" width="120" height="60" as="geometry" />
        </mxCell>
        <mxCell id="F_9SeeO0Q5-dGzmuoSJV-4" value="" style="endArrow=classic;html=1;entryX=0.5;entryY=1;entryDx=0;entryDy=0;exitX=0.5;exitY=0;exitDx=0;exitDy=0;" edge="1" parent="1" source="F_9SeeO0Q5-dGzmuoSJV-3" target="F_9SeeO0Q5-dGzmuoSJV-1">
          <mxGeometry width="50" height="50" relative="1" as="geometry">
            <mxPoint x="500" y="350" as="sourcePoint" />
            <mxPoint x="440" y="260" as="targetPoint" />
          </mxGeometry>
        </mxCell>
        <mxCell id="F_9SeeO0Q5-dGzmuoSJV-5" value="1,启动时向注册中心注册服务" style="edgeLabel;html=1;align=center;verticalAlign=middle;resizable=0;points=[];fontSize=20;" vertex="1" connectable="0" parent="F_9SeeO0Q5-dGzmuoSJV-4">
          <mxGeometry x="-0.1537" relative="1" as="geometry">
            <mxPoint x="78.97" y="-13.66" as="offset" />
          </mxGeometry>
        </mxCell>
        <mxCell id="F_9SeeO0Q5-dGzmuoSJV-6" value="2,启动时获取所有的服务" style="endArrow=classic;html=1;fontSize=18;exitX=0.5;exitY=0;exitDx=0;exitDy=0;" edge="1" parent="1" source="F_9SeeO0Q5-dGzmuoSJV-2">
          <mxGeometry x="-0.6345" y="52" width="50" height="50" relative="1" as="geometry">
            <mxPoint x="230" y="360" as="sourcePoint" />
            <mxPoint x="360" y="250" as="targetPoint" />
            <mxPoint as="offset" />
          </mxGeometry>
        </mxCell>
        <mxCell id="F_9SeeO0Q5-dGzmuoSJV-9" value="..." style="rounded=1;whiteSpace=wrap;html=1;fontSize=20;fillColor=#e1d5e7;strokeColor=#9673a6;" vertex="1" parent="1">
          <mxGeometry x="560" y="480" width="120" height="60" as="geometry" />
        </mxCell>
        <mxCell id="F_9SeeO0Q5-dGzmuoSJV-10" value="服务提供者n" style="rounded=1;whiteSpace=wrap;html=1;fontSize=20;fillColor=#e1d5e7;strokeColor=#9673a6;" vertex="1" parent="1">
          <mxGeometry x="560" y="600" width="120" height="60" as="geometry" />
        </mxCell>
        <mxCell id="F_9SeeO0Q5-dGzmuoSJV-11" value="Ribbon" style="rounded=1;whiteSpace=wrap;html=1;fillColor=#dae8fc;strokeColor=#6c8ebf;fontSize=20;" vertex="1" parent="1">
          <mxGeometry x="305" y="360" width="120" height="60" as="geometry" />
        </mxCell>
        <mxCell id="F_9SeeO0Q5-dGzmuoSJV-12" value="RestTemplate" style="endArrow=classic;html=1;rounded=0;entryX=0;entryY=0.5;entryDx=0;entryDy=0;fontSize=18;exitX=1;exitY=0.5;exitDx=0;exitDy=0;" edge="1" parent="1">
          <mxGeometry x="-0.0483" y="20" width="50" height="50" relative="1" as="geometry">
            <mxPoint x="161" y="390" as="sourcePoint" />
            <mxPoint x="306" y="390" as="targetPoint" />
            <Array as="points">
              <mxPoint x="261" y="390" />
            </Array>
            <mxPoint as="offset" />
          </mxGeometry>
        </mxCell>
        <mxCell id="F_9SeeO0Q5-dGzmuoSJV-13" value="" style="endArrow=classic;html=1;rounded=0;entryX=0;entryY=0.5;entryDx=0;entryDy=0;" edge="1" parent="1" target="F_9SeeO0Q5-dGzmuoSJV-3">
          <mxGeometry width="50" height="50" relative="1" as="geometry">
            <mxPoint x="430" y="389.5" as="sourcePoint" />
            <mxPoint x="515" y="389.5" as="targetPoint" />
          </mxGeometry>
        </mxCell>
        <mxCell id="F_9SeeO0Q5-dGzmuoSJV-17" value="3,调用服务" style="edgeLabel;html=1;align=center;verticalAlign=middle;resizable=0;points=[];fontSize=18;" vertex="1" connectable="0" parent="F_9SeeO0Q5-dGzmuoSJV-13">
          <mxGeometry x="-0.7744" relative="1" as="geometry">
            <mxPoint x="35" y="-20" as="offset" />
          </mxGeometry>
        </mxCell>
        <mxCell id="F_9SeeO0Q5-dGzmuoSJV-14" value="" style="endArrow=classic;html=1;rounded=0;entryX=0;entryY=0.5;entryDx=0;entryDy=0;" edge="1" parent="1" target="F_9SeeO0Q5-dGzmuoSJV-10">
          <mxGeometry width="50" height="50" relative="1" as="geometry">
            <mxPoint x="430" y="410" as="sourcePoint" />
            <mxPoint x="515" y="399.5" as="targetPoint" />
          </mxGeometry>
        </mxCell>
        <mxCell id="F_9SeeO0Q5-dGzmuoSJV-16" value="" style="endArrow=classic;html=1;rounded=0;entryX=0;entryY=0.5;entryDx=0;entryDy=0;dashed=1;" edge="1" parent="1" target="F_9SeeO0Q5-dGzmuoSJV-9">
          <mxGeometry width="50" height="50" relative="1" as="geometry">
            <mxPoint x="430" y="400" as="sourcePoint" />
            <mxPoint x="570" y="640" as="targetPoint" />
          </mxGeometry>
        </mxCell>
      </root>
    </mxGraphModel>
  </diagram>
</mxfile>
